<svg id="contract_2212131" xmlns="http://www.w3.org/2000/svg" width="36.602" height="36.602" viewBox="0 0 36.602 36.602">
  <path id="Path_3834" data-name="Path 3834" d="M1.072,36.6h21.59a1.072,1.072,0,0,0,1.072-1.072V1.072A1.072,1.072,0,0,0,22.662,0H1.072A1.072,1.072,0,0,0,0,1.072V35.53A1.072,1.072,0,0,0,1.072,36.6ZM2.145,2.145H21.59V34.458H2.145Z" fill="#019e57"/>
  <path id="Path_3835" data-name="Path 3835" d="M369.506,64.289h-1.072V61.072A1.072,1.072,0,0,0,367.362,60h-4.289A1.072,1.072,0,0,0,362,61.072V83.847a8.34,8.34,0,0,0,2.459,5.936,1.072,1.072,0,0,0,1.516,0,8.34,8.34,0,0,0,2.459-5.936V66.434h1.072a1.074,1.074,0,0,1,1.072,1.072v8.579a1.072,1.072,0,0,0,2.145,0V67.506A3.221,3.221,0,0,0,369.506,64.289Zm-3.217-2.145v2.145h-2.145V62.145Zm-1.072,25.206a6.206,6.206,0,0,1-1.072-3.5v-2.4h2.145v2.4A6.206,6.206,0,0,1,365.217,87.351Zm1.072-8.049h-2.145V66.434h2.145Z" transform="translate(-336.121 -55.711)" fill="#019e57"/>
  <path id="Path_3836" data-name="Path 3836" d="M158.506,422h-6.434a1.072,1.072,0,0,0,0,2.145h6.434a1.072,1.072,0,1,0,0-2.145Z" transform="translate(-140.205 -391.832)" fill="#00272f"/>
  <path id="Path_3837" data-name="Path 3837" d="M92.072,123.145h8.579a1.072,1.072,0,1,0,0-2.145H92.072a1.072,1.072,0,0,0,0,2.145Z" transform="translate(-84.495 -112.35)" fill="#00272f"/>
  <path id="Path_3838" data-name="Path 3838" d="M74.012,211H61.072a1.072,1.072,0,0,0,0,2.145H74.012a1.072,1.072,0,1,0,0-2.145Z" transform="translate(-55.711 -195.916)" fill="#00272f"/>
  <path id="Path_3839" data-name="Path 3839" d="M74.012,271H61.072a1.072,1.072,0,1,0,0,2.145H74.012a1.072,1.072,0,1,0,0-2.145Z" transform="translate(-55.711 -251.627)" fill="#00272f"/>
  <path id="Path_3840" data-name="Path 3840" d="M74.012,331H61.072a1.072,1.072,0,1,0,0,2.145H74.012a1.072,1.072,0,1,0,0-2.145Z" transform="translate(-55.711 -307.337)" fill="#00272f"/>
  <circle id="Ellipse_11" data-name="Ellipse 11" cx="1" cy="1" r="1" transform="translate(11.301 4.301)" fill="#00272f"/>
  <circle id="Ellipse_12" data-name="Ellipse 12" cx="1" cy="1" r="1" transform="translate(15.301 4.301)" fill="#00272f"/>
  <ellipse id="Ellipse_13" data-name="Ellipse 13" cx="1.5" cy="1" rx="1.5" ry="1" transform="translate(6.301 4.301)" fill="#00272f"/>
</svg>
