<svg xmlns="http://www.w3.org/2000/svg" width="45.224" height="45.224" viewBox="0 0 45.224 45.224">
  <g id="rocket_4036624" transform="translate(0.002 0.001)">
    <path id="Path_3831" data-name="Path 3831" d="M45.085,405.043a7.1,7.1,0,0,0-10.022-2.065,7.106,7.106,0,0,0-6.493-4.231,7.03,7.03,0,0,0-4.28,1.438A7.173,7.173,0,0,0,22.61,402a7.174,7.174,0,0,0-1.68-1.812,7.03,7.03,0,0,0-4.28-1.438,7.106,7.106,0,0,0-6.493,4.231A7.1,7.1,0,0,0,.135,405.043a.883.883,0,0,0-.137.472v2.352a.883.883,0,0,0,.883.883H44.339a.883.883,0,0,0,.883-.883v-2.352A.881.881,0,0,0,45.085,405.043Zm-1.63,1.941H1.765v-1.2a5.326,5.326,0,0,1,8.185-.677.883.883,0,0,0,1.494-.423,5.313,5.313,0,0,1,5.207-4.169,5.376,5.376,0,0,1,5.114,3.816.883.883,0,0,0,1.692,0,5.376,5.376,0,0,1,5.114-3.816,5.313,5.313,0,0,1,5.207,4.169.883.883,0,0,0,1.494.423,5.326,5.326,0,0,1,8.185.676v1.2Z" transform="translate(0 -363.528)" fill="#00272f"/>
    <path id="Path_3832" data-name="Path 3832" d="M117.155,32.61a.883.883,0,0,0,.77.471h.012a.883.883,0,0,0,.77-.451l1.6-2.849a.882.882,0,0,0,.374.083h2.382q-.006.1-.006.21c0,2.876,3.022,4.307,3.15,4.366a.883.883,0,0,0,.757-.008c.128-.062,3.135-1.557,3.135-4.359q0-.106-.006-.21h2.382a.881.881,0,0,0,.382-.087l1.588,2.85a.883.883,0,0,0,.772.453h.01A.883.883,0,0,0,136,32.61l2.384-4.524a6.308,6.308,0,0,0-.433-6.614l-2.045-2.89q-.025-.036-.053-.068a24.02,24.02,0,0,0,.546-3.716c0-3.326-1.577-6.807-4.686-10.349A30.71,30.71,0,0,0,127.093.165a.883.883,0,0,0-1.032,0,30.711,30.711,0,0,0-4.616,4.285c-3.111,3.541-4.688,7.023-4.688,10.349a24.023,24.023,0,0,0,.546,3.716q-.028.032-.053.068l-2.045,2.89a6.308,6.308,0,0,0-.433,6.614Zm11.175-2.535a3.4,3.4,0,0,1-1.762,2.548,3.315,3.315,0,0,1-1.747-2.548,1.788,1.788,0,0,1,.012-.21h3.484A1.808,1.808,0,0,1,128.329,30.076Zm8.174-7.583a4.549,4.549,0,0,1,.312,4.77l-1.624,3.082-1.478-2.653c.41-1.621,1.072-4.293,1.636-6.829ZM126.577,2a30.768,30.768,0,0,1,3.867,3.7h-7.735A30.78,30.78,0,0,1,126.577,2ZM121.3,7.463h10.548a12.955,12.955,0,0,1,2.777,7.336c0,1.865-1.91,9.687-2.839,13.3H121.361c-.928-3.612-2.838-11.435-2.838-13.3A12.951,12.951,0,0,1,121.3,7.463Zm-4.655,15.03,1.153-1.63c.565,2.545,1.23,5.227,1.64,6.847l-1.48,2.64-1.626-3.086A4.55,4.55,0,0,1,116.646,22.493Z" transform="translate(-103.965 0)" fill="#019e57"/>
    <path id="Path_3833" data-name="Path 3833" d="M199.949,123.71a5.43,5.43,0,1,0-5.43-5.43A5.437,5.437,0,0,0,199.949,123.71Zm0-9.094a3.664,3.664,0,1,1-3.664,3.664A3.668,3.668,0,0,1,199.949,114.616Z" transform="translate(-177.339 -102.883)" fill="#00272f"/>
  </g>
</svg>
