<svg id="taxes_1026157" xmlns="http://www.w3.org/2000/svg" width="47.423" height="47.423" viewBox="0 0 47.423 47.423">
  <g id="Group_5" data-name="Group 5" transform="translate(3.705 19.265)">
    <g id="Group_4" data-name="Group 4">
      <path id="Path_8" data-name="Path 8" d="M55.537,208H41.69A1.692,1.692,0,0,0,40,209.69v3.659a1.692,1.692,0,0,0,1.69,1.69H55.537a1.692,1.692,0,0,0,1.69-1.69V209.69A1.692,1.692,0,0,0,55.537,208Zm-.162,5.187H41.852v-3.334H55.375Z" transform="translate(-40 -208)" fill="#019e57"/>
    </g>
  </g>
  <g id="Group_7" data-name="Group 7" transform="translate(3.705 28.157)">
    <g id="Group_6" data-name="Group 6">
      <path id="Path_9" data-name="Path 9" d="M56.3,304H40.926a.926.926,0,0,0-.926.926v13.338a.926.926,0,0,0,.926.926H56.3a.926.926,0,0,0,.926-.926V304.926A.926.926,0,0,0,56.3,304ZM45.125,317.338H41.852v-2.593h3.273Zm0-4.446H41.852V310.3h3.273Zm0-4.446H41.852v-2.593h3.273Zm5.125,8.892H46.978v-2.593H50.25Zm0-4.446H46.978V310.3H50.25Zm0-4.446H46.978v-2.593H50.25Zm5.125,8.892H52.1V310.3h3.273Zm0-8.892H52.1v-2.593h3.273Z" transform="translate(-40 -304)" fill="#019e57"/>
    </g>
  </g>
  <g id="Group_9" data-name="Group 9" transform="translate(40.569 10.069)">
    <g id="Group_8" data-name="Group 8">
      <path id="Path_10" data-name="Path 10" d="M439.581,108.981a.925.925,0,1,0,.271.655A.933.933,0,0,0,439.581,108.981Z" transform="translate(-438 -108.71)" fill="#019e57"/>
    </g>
  </g>
  <g id="Group_11" data-name="Group 11" transform="translate(35.025 32.577)">
    <g id="Group_10" data-name="Group 10">
      <path id="Path_11" data-name="Path 11" d="M381.1,356.225a.926.926,0,1,1,1.1-.91.926.926,0,1,0,1.852,0,2.79,2.79,0,0,0-2.024-2.622v-.048a.926.926,0,0,0-1.852,0v.048a2.791,2.791,0,0,0-2.024,2.622,2.864,2.864,0,0,0,2.95,2.763.926.926,0,1,1-1.1.91.926.926,0,1,0-1.852,0,2.791,2.791,0,0,0,2.025,2.623.925.925,0,0,0,1.85,0,2.791,2.791,0,0,0,2.025-2.623A2.864,2.864,0,0,0,381.1,356.225Z" transform="translate(-378.152 -351.718)" fill="#019e57"/>
    </g>
  </g>
  <g id="Group_13" data-name="Group 13">
    <g id="Group_12" data-name="Group 12">
      <path id="Path_12" data-name="Path 12" d="M41.026,29.033a4.659,4.659,0,0,0,1.4-3.327V14.82a.926.926,0,1,0-1.852,0V25.706a2.822,2.822,0,1,1-5.643,0V5.928A.926.926,0,0,0,34,5H20.278V1.852H40.569V7.294a.926.926,0,1,0,1.852,0V.926A.926.926,0,0,0,41.495,0H19.351a.926.926,0,0,0-.926.926V5H11.856a.926.926,0,0,0-.926.926v9.633H3.149A3.153,3.153,0,0,0,0,18.71V44.274a3.153,3.153,0,0,0,3.149,3.149H21.488a3.153,3.153,0,0,0,3.149-3.149V30.38h3.921a.926.926,0,1,0,0-1.852H24.638V18.71a3.153,3.153,0,0,0-3.149-3.149H12.782V6.854H33.073V25.706a4.663,4.663,0,0,0,1.522,3.448,9.446,9.446,0,1,0,6.431-.12ZM21.488,17.413a1.3,1.3,0,0,1,1.3,1.3V44.274a1.3,1.3,0,0,1-1.3,1.3H3.149a1.3,1.3,0,0,1-1.3-1.3V18.71a1.3,1.3,0,0,1,1.3-1.3ZM37.975,45.57a7.6,7.6,0,1,1,7.6-7.6A7.6,7.6,0,0,1,37.975,45.57Z" fill="#00272f"/>
    </g>
  </g>
  <g id="Group_15" data-name="Group 15" transform="translate(24.174 13.523)">
    <g id="Group_14" data-name="Group 14">
      <path id="Path_13" data-name="Path 13" d="M266.265,146h-4.339a.926.926,0,0,0,0,1.852h4.339a.926.926,0,1,0,0-1.852Z" transform="translate(-261 -146)" fill="#019e57"/>
    </g>
  </g>
  <g id="Group_17" data-name="Group 17" transform="translate(18.71 9.077)">
    <g id="Group_16" data-name="Group 16">
      <path id="Path_14" data-name="Path 14" d="M212.806,98h-9.88a.926.926,0,1,0,0,1.852h9.88a.926.926,0,1,0,0-1.852Z" transform="translate(-202 -98)" fill="#019e57"/>
    </g>
  </g>
  <g id="Group_19" data-name="Group 19" transform="translate(15.051 9.077)">
    <g id="Group_18" data-name="Group 18">
      <path id="Path_15" data-name="Path 15" d="M164.081,98.271a.925.925,0,1,0,.271.655A.932.932,0,0,0,164.081,98.271Z" transform="translate(-162.5 -98)" fill="#019e57"/>
    </g>
  </g>
  <g id="Group_21" data-name="Group 21" transform="translate(25.749 17.969)">
    <g id="Group_20" data-name="Group 20">
      <path id="Path_16" data-name="Path 16" d="M281.69,194h-2.764a.926.926,0,0,0,0,1.852h2.764a.926.926,0,0,0,0-1.852Z" transform="translate(-278 -194)" fill="#019e57"/>
    </g>
  </g>
  <g id="Group_23" data-name="Group 23" transform="translate(25.749 22.415)">
    <g id="Group_22" data-name="Group 22">
      <path id="Path_17" data-name="Path 17" d="M281.69,242h-2.764a.926.926,0,0,0,0,1.852h2.764a.926.926,0,0,0,0-1.852Z" transform="translate(-278 -242)" fill="#019e57"/>
    </g>
  </g>
</svg>
